# xmcd CD database file
#
# Track frame offsets:
#	150
#	14624
#	27297
#	39857
#	53090
#	66914
#	78692
#	92803
#	105970
#	119921
#	133800
#	146339
#	158478
#	172947
#	184897
#	198341
#	211913
#	224555
#	237436
#	250858
#
# Disc length: 3499 seconds
#
# Revision: 0
# Processed by: cddbd v1.5.1PL0 Copyright (c) Steve Scherf et al.
# Submitted via: CDex 1.51
#
DISCID=1d0da914
DTITLE=Arnett Cobb - Classics 1946-1947
DYEAR=1946
DGENRE=Jazz
TTITLE0=Down Home
TTITLE1=Jenny
TTITLE2=Gate Serene Blues
TTITLE3=Shebna
TTITLE4=Walkin' With Sid
TTITLE5=Stiff Flyin'
TTITLE6=Cobb's Idea
TTITLE7=Top Flight
TTITLE8=When I Grow Too Old To Dream, Part 1
TTITLE9=When I Grow Too Old To Dream, Part 2
TTITLE10=Cobb's Boogie
TTITLE11=Cobb's Corner
TTITLE12=Dutch Kitchen Bounce
TTITLE13=Go Red Go
TTITLE14=Pay It No Mind
TTITLE15=Chick She Ain't Nowhere
TTITLE16=Arnett Blows for 1300
TTITLE17=Running With Ray
TTITLE18=Flower Garden Blues
TTITLE19=Big League Blues`
EXTD=YEAR: 1946
EXTT0=
EXTT1=
EXTT2=
EXTT3=
EXTT4=
EXTT5=
EXTT6=
EXTT7=
EXTT8=
EXTT9=
EXTT10=
EXTT11=
EXTT12=
EXTT13=
EXTT14=
EXTT15=
EXTT16=
EXTT17=
EXTT18=
EXTT19=
PLAYORDER=
